<?xml version="1.0" encoding="utf-8"?>
<!-- Generator: Adobe Illustrator 27.5.0, SVG Export Plug-In . SVG Version: 6.00 Build 0)  -->
<svg version="1.1" xmlns="http://www.w3.org/2000/svg" xmlns:xlink="http://www.w3.org/1999/xlink" x="0px" y="0px"
	 viewBox="0 0 500 500" style="enable-background:new 0 0 500 500;" xml:space="preserve">
<g id="BACKGROUND">
	<rect style="fill:#170D36;" width="500" height="500"/>
</g>
<g id="OBJECTS">
	<g>
		<g>
			<linearGradient id="SVGID_1_" gradientUnits="userSpaceOnUse" x1="165.3429" y1="346.2096" x2="343.7629" y2="92.2758">
				<stop  offset="0" style="stop-color:#412C9B"/>
				<stop  offset="0.2186" style="stop-color:#6F42B9"/>
				<stop  offset="0.7509" style="stop-color:#DB75FF"/>
			</linearGradient>
			<path style="fill:url(#SVGID_1_);" d="M328.684,105.571v215.454c0,7.765-6.293,14.058-14.058,14.058H202.833
				c-7.765,0-14.058-6.293-14.058-14.058V105.571c0-7.765,6.293-14.058,14.058-14.058h111.794
				C322.392,91.513,328.684,97.806,328.684,105.571z"/>
			
				<linearGradient id="SVGID_00000043441272153551720550000000774105099397830329_" gradientUnits="userSpaceOnUse" x1="343.8343" y1="16.4512" x2="175.0287" y2="414.0319">
				<stop  offset="0.2058" style="stop-color:#FFFFFF"/>
				<stop  offset="0.3081" style="stop-color:#F6DEFF;stop-opacity:0.7762"/>
				<stop  offset="0.5505" style="stop-color:#E393FF;stop-opacity:0.2455"/>
				<stop  offset="0.6627" style="stop-color:#DB75FF;stop-opacity:0"/>
			</linearGradient>
			<path style="fill:url(#SVGID_00000043441272153551720550000000774105099397830329_);" d="M310.403,321.388H207.057
				c-2.915,0-5.278-2.363-5.278-5.278V117.678c0-2.915,2.363-5.278,5.278-5.278h103.346c2.915,0,5.278,2.363,5.278,5.278V316.11
				C315.681,319.025,313.318,321.388,310.403,321.388z"/>
			
				<linearGradient id="SVGID_00000113311282125226747930000016101593016394826424_" gradientUnits="userSpaceOnUse" x1="1521.9299" y1="-53.6858" x2="1353.1244" y2="343.8948" gradientTransform="matrix(-1 0 0 -1 1695.5555 363.6509)">
				<stop  offset="0.2058" style="stop-color:#FFFFFF"/>
				<stop  offset="0.3081" style="stop-color:#F6DEFF;stop-opacity:0.7762"/>
				<stop  offset="0.5505" style="stop-color:#E393FF;stop-opacity:0.2455"/>
				<stop  offset="0.6627" style="stop-color:#DB75FF;stop-opacity:0"/>
			</linearGradient>
			<path style="fill:url(#SVGID_00000113311282125226747930000016101593016394826424_);" d="M207.057,112.4h103.346
				c2.915,0,5.278,2.363,5.278,5.278V316.11c0,2.915-2.363,5.278-5.278,5.278H207.057c-2.915,0-5.278-2.363-5.278-5.278V117.678
				C201.779,114.763,204.142,112.4,207.057,112.4z"/>
			<path style="opacity:0.38;fill:#714DC8;" d="M292.787,108.53h-69.595c-1.84,0-3.332-1.492-3.332-3.332l0,0
				c0-1.84,1.492-3.332,3.332-3.332h69.595c1.84,0,3.332,1.492,3.332,3.332l0,0C296.119,107.039,294.627,108.53,292.787,108.53z"/>
			<g style="opacity:0.5;">
				
					<linearGradient id="SVGID_00000163030950356731604770000011669770425106083493_" gradientUnits="userSpaceOnUse" x1="190.5667" y1="94.9295" x2="318.2814" y2="218.7572">
					<stop  offset="0" style="stop-color:#FFFFFF"/>
					<stop  offset="0.0239" style="stop-color:#FDF7FF;stop-opacity:0.9568"/>
					<stop  offset="0.2034" style="stop-color:#EEBFFF;stop-opacity:0.6327"/>
					<stop  offset="0.3579" style="stop-color:#E497FF;stop-opacity:0.3537"/>
					<stop  offset="0.4797" style="stop-color:#DD7EFF;stop-opacity:0.1337"/>
					<stop  offset="0.5537" style="stop-color:#DB75FF;stop-opacity:0"/>
				</linearGradient>
				<path style="fill:url(#SVGID_00000163030950356731604770000011669770425106083493_);" d="M292.955,94.887h-87.46
					c-7.395,0-13.389,5.993-13.389,13.389v87.46L292.955,94.887z"/>
				
					<linearGradient id="SVGID_00000148629773697604487440000009973948311206697881_" gradientUnits="userSpaceOnUse" x1="325.6786" y1="351.0157" x2="232.9465" y2="222.1905">
					<stop  offset="0.0393" style="stop-color:#FFFFFF"/>
					<stop  offset="0.0615" style="stop-color:#FDF7FF;stop-opacity:0.9568"/>
					<stop  offset="0.2286" style="stop-color:#EEBFFF;stop-opacity:0.6327"/>
					<stop  offset="0.3723" style="stop-color:#E497FF;stop-opacity:0.3537"/>
					<stop  offset="0.4857" style="stop-color:#DD7EFF;stop-opacity:0.1337"/>
					<stop  offset="0.5546" style="stop-color:#DB75FF;stop-opacity:0"/>
				</linearGradient>
				<path style="fill:url(#SVGID_00000148629773697604487440000009973948311206697881_);" d="M278.237,267.376
					c-20.654,20.668-41.348,41.297-62.06,61.908h95.788c7.395,0,13.388-5.993,13.388-13.388v-95.721
					C309.65,235.911,293.951,251.651,278.237,267.376z"/>
			</g>
		</g>
		<path style="opacity:0.18;fill:#714DC8;" d="M264.346,192.653l-20.663,63.735c-0.966,2.975-3.669,4.992-6.727,4.992h-48.182
			v-77.09h69.971C262.962,184.29,265.859,188.62,264.346,192.653z"/>
		<g>
			
				<linearGradient id="SVGID_00000069386865224569593110000007522640786315455892_" gradientUnits="userSpaceOnUse" x1="223.2599" y1="225.9555" x2="36.06" y2="404.872">
				<stop  offset="0" style="stop-color:#412C9B"/>
				<stop  offset="0.0527" style="stop-color:#643CB1"/>
				<stop  offset="0.1397" style="stop-color:#9755D3"/>
				<stop  offset="0.2156" style="stop-color:#BC66EB"/>
				<stop  offset="0.2767" style="stop-color:#D371FA"/>
				<stop  offset="0.3153" style="stop-color:#DB75FF"/>
			</linearGradient>
			<circle style="fill:url(#SVGID_00000069386865224569593110000007522640786315455892_);" cx="178.609" cy="268.631" r="10.643"/>
			
				<linearGradient id="SVGID_00000106868109417573662000000006435131863082405772_" gradientUnits="userSpaceOnUse" x1="252.5692" y1="236.6848" x2="65.3693" y2="415.6013">
				<stop  offset="0" style="stop-color:#412C9B"/>
				<stop  offset="0.0921" style="stop-color:#814AC5"/>
				<stop  offset="0.1923" style="stop-color:#C269EF"/>
				<stop  offset="0.2397" style="stop-color:#DB75FF"/>
			</linearGradient>
			<circle style="fill:url(#SVGID_00000106868109417573662000000006435131863082405772_);" cx="219.144" cy="268.631" r="10.643"/>
			
				<linearGradient id="SVGID_00000038377330544584922970000004884340519080052914_" gradientUnits="userSpaceOnUse" x1="240.3802" y1="152.6948" x2="53.1806" y2="331.611">
				<stop  offset="0" style="stop-color:#412C9B"/>
				<stop  offset="0.0251" style="stop-color:#4F33A4"/>
				<stop  offset="0.109" style="stop-color:#7A47C0"/>
				<stop  offset="0.1944" style="stop-color:#9D58D7"/>
				<stop  offset="0.2804" style="stop-color:#B864E8"/>
				<stop  offset="0.3672" style="stop-color:#CC6EF5"/>
				<stop  offset="0.4552" style="stop-color:#D773FD"/>
				<stop  offset="0.5465" style="stop-color:#DB75FF"/>
			</linearGradient>
			<path style="fill:url(#SVGID_00000038377330544584922970000004884340519080052914_);" d="M248.063,189.873h-83.106l-2.931-14.131
				c-0.644-3.107-3.38-5.335-6.554-5.335h-32.575c-3.697,0-6.694,2.997-6.694,6.694c0,3.697,2.997,6.694,6.694,6.694h27.127
				l10.485,65.059c0.512,3.669,3.649,6.399,7.354,6.399h63.869c3.221,0,6.074-2.077,7.065-5.142l16.332-50.531
				C256.678,194.787,253.103,189.873,248.063,189.873z"/>
			<g>
				<path style="fill:#714DC8;" d="M179.627,213.843L179.627,213.843c0-2.658,2.155-4.813,4.812-4.813h31.096
					c2.658,0,4.812,2.155,4.812,4.813l0,0c0,2.658-2.155,4.812-4.812,4.812h-31.096
					C181.782,218.655,179.627,216.501,179.627,213.843z"/>
				<path style="fill:#714DC8;" d="M179.627,234.758L179.627,234.758c0-2.658,2.155-4.812,4.812-4.812h31.096
					c2.658,0,4.812,2.155,4.812,4.812l0,0c0,2.658-2.155,4.813-4.812,4.813h-31.096
					C181.782,239.571,179.627,237.416,179.627,234.758z"/>
			</g>
			<g>
				
					<linearGradient id="SVGID_00000010305856490332754110000014087463921053847993_" gradientUnits="userSpaceOnUse" x1="162.6211" y1="209.1291" x2="72.5947" y2="224.5622">
					<stop  offset="0" style="stop-color:#412C9B"/>
					<stop  offset="0.0251" style="stop-color:#4F33A4"/>
					<stop  offset="0.109" style="stop-color:#7A47C0"/>
					<stop  offset="0.1944" style="stop-color:#9D58D7"/>
					<stop  offset="0.2804" style="stop-color:#B864E8"/>
					<stop  offset="0.3672" style="stop-color:#CC6EF5"/>
					<stop  offset="0.4552" style="stop-color:#D773FD"/>
					<stop  offset="0.5465" style="stop-color:#DB75FF"/>
				</linearGradient>
				<path style="fill:url(#SVGID_00000010305856490332754110000014087463921053847993_);" d="M119.356,213.843L119.356,213.843
					c0-2.658,2.155-4.813,4.812-4.813h21.911c2.658,0,4.813,2.155,4.813,4.813l0,0c0,2.658-2.155,4.812-4.813,4.812h-21.911
					C121.51,218.655,119.356,216.501,119.356,213.843z"/>
				
					<linearGradient id="SVGID_00000034072470301686074330000000695331884525659021_" gradientUnits="userSpaceOnUse" x1="162.6211" y1="243.7377" x2="72.5947" y2="259.1709">
					<stop  offset="0" style="stop-color:#412C9B"/>
					<stop  offset="0.0251" style="stop-color:#4F33A4"/>
					<stop  offset="0.109" style="stop-color:#7A47C0"/>
					<stop  offset="0.1944" style="stop-color:#9D58D7"/>
					<stop  offset="0.2804" style="stop-color:#B864E8"/>
					<stop  offset="0.3672" style="stop-color:#CC6EF5"/>
					<stop  offset="0.4552" style="stop-color:#D773FD"/>
					<stop  offset="0.5465" style="stop-color:#DB75FF"/>
				</linearGradient>
				<path style="fill:url(#SVGID_00000034072470301686074330000000695331884525659021_);" d="M119.356,248.452L119.356,248.452
					c0-2.658,2.155-4.812,4.812-4.812h21.911c2.658,0,4.813,2.155,4.813,4.812l0,0c0,2.658-2.155,4.812-4.813,4.812h-21.911
					C121.51,253.264,119.356,251.109,119.356,248.452z"/>
				
					<linearGradient id="SVGID_00000134213088353808972480000007394579142972453782_" gradientUnits="userSpaceOnUse" x1="169.4846" y1="224.6636" x2="53.3555" y2="244.5715">
					<stop  offset="0" style="stop-color:#412C9B"/>
					<stop  offset="0.0251" style="stop-color:#4F33A4"/>
					<stop  offset="0.109" style="stop-color:#7A47C0"/>
					<stop  offset="0.1944" style="stop-color:#9D58D7"/>
					<stop  offset="0.2804" style="stop-color:#B864E8"/>
					<stop  offset="0.3672" style="stop-color:#CC6EF5"/>
					<stop  offset="0.4552" style="stop-color:#D773FD"/>
					<stop  offset="0.5465" style="stop-color:#DB75FF"/>
				</linearGradient>
				<path style="fill:url(#SVGID_00000134213088353808972480000007394579142972453782_);" d="M110.171,231.341L110.171,231.341
					c0-2.658,2.155-4.812,4.812-4.812h31.096c2.658,0,4.813,2.155,4.813,4.812l0,0c0,2.658-2.155,4.813-4.813,4.813h-31.096
					C112.326,236.154,110.171,233.999,110.171,231.341z"/>
			</g>
		</g>
	</g>
</g>
<g id="TEXT">
	<g>
		<text transform="matrix(0.9766 0 0 1 104.6811 385.6935)"><tspan x="0" y="0" style="fill:#FFFFFF; font-family:'Poppins-Regular'; font-size:35.337px; letter-spacing:2.048;">Mobile</tspan><tspan x="138.908" y="0" style="fill:#412C9B; font-family:'Poppins-Regular'; font-size:35.337px; letter-spacing:2.048;"> </tspan><tspan x="151.17" y="0" style="fill:#714DC8; font-family:'Poppins-SemiBold'; font-size:35.337px; letter-spacing:6.144;">store</tspan></text>
		
			<text transform="matrix(0.9766 0 0 1 137.5395 405.9845)" style="fill:#DB75FF; font-family:'Poppins-Black'; font-size:16.6556px; letter-spacing:3.072;">your tagline here</text>
	</g>
</g>
</svg>
